<svg id="img" width="191" height="191" viewBox="0 0 191 191" fill="none" xmlns="http://www.w3.org/2000/svg">
<path d="M 136.5 113.5 C 130.2 125.1 117.9 133.1 103.8 133.1 C 83.2 133.1 66.5 116.4 66.5 95.8 C 66.5 75.3 83.2 58.6 103.8 58.6 C 117.9 58.6 130.2 66.6 136.5 78.2 L 155 68.3 C 145.2 50 125.9 37.7 103.8 37.7 C 71.6 37.7 45.6 63.7 45.6 95.8 C 45.6 128 71.6 154 103.8 154 C 125.9 154 145.2 141.6 155 123.4 L 136.5 113.5 Z" fill="#151e2a"/>
<path d="M 24.3 95.9 C 24.3 52 59.9 16.4 103.8 16.4 V 175.3 C 59.9 175.3 24.3 139.7 24.3 95.9 Z" fill="#5f73f4"/>
<path fill-rule="evenodd" clip-rule="evenodd" d="M 103.8 133.1 V 154 C 103.8 154 103.8 154 103.8 154 C 71.6 154 45.6 128 45.6 95.8 C 45.6 63.7 71.6 37.7 103.8 37.7 C 103.8 37.7 103.8 37.7 103.8 37.7 V 58.6 C 103.8 58.6 103.8 58.6 103.8 58.6 C 83.2 58.6 66.5 75.3 66.5 95.8 C 66.5 116.4 83.2 133.1 103.8 133.1 C 103.8 133.1 103.8 133.1 103.8 133.1 Z" fill="white"/>
</svg>
